<svg width="15" height="28" viewBox="0 0 15 28" fill="none" xmlns="http://www.w3.org/2000/svg">
<path d="M10.1802 10.0772H14.5981L14.8391 10.321V15.5221L14.5981 15.7659H10.1802V27.3872C10.1802 27.4506 9.99386 27.7529 9.91032 27.805C9.54243 28.0358 5.78801 28.026 5.11809 27.9561C4.88354 27.9317 4.52047 27.9009 4.38552 27.6847L4.23773 15.7659H0.460817C0.174858 15.5173 0.0977455 15.241 0.0559762 14.8753C-0.0227429 14.1991 -0.0372015 11.0833 0.131482 10.5567C0.19253 10.3665 0.321051 10.2121 0.460817 10.0772H4.23612C4.17668 6.78423 3.99675 3.3011 6.91417 1.16538C7.47645 0.754165 9.13277 0 9.77858 0H14.7588L14.9997 0.243803V5.11987L14.7588 5.36367H11.5457C11.1618 5.36367 10.1802 6.02682 10.1802 6.42015V10.0772Z" fill="white"/>
</svg>
