<svg width="27" height="25" viewBox="0 0 27 25" fill="none" xmlns="http://www.w3.org/2000/svg">
<path d="M26.2229 6.62471V18.5606C26.1818 18.8138 26.1571 19.0671 26.0996 19.3521C25.8611 20.6319 25.2389 21.8166 24.3096 22.7603C23.3803 23.7039 22.1845 24.3654 20.8695 24.663C20.4995 24.758 20.1047 24.7976 19.7264 24.8609H7.32561L7.0789 24.8213C6.3876 24.7586 5.71214 24.5847 5.08062 24.3069C3.80271 23.8022 2.71343 22.9371 1.95605 21.8252C1.19868 20.7134 0.808684 19.407 0.837359 18.0777C0.788018 14.4527 0.837359 10.8197 0.837359 7.18668C0.814899 6.02659 1.122 4.88262 1.7255 3.8782C2.33205 2.80041 3.23737 1.90574 4.34075 1.29369C5.44413 0.681639 6.70227 0.376225 7.97524 0.411424C11.684 0.411424 15.3763 0.411424 19.0933 0.411424C19.5736 0.402122 20.0536 0.444591 20.5241 0.538055C21.851 0.766937 23.0791 1.36493 24.0568 2.25814C25.0345 3.15135 25.7189 4.30066 26.0256 5.5641C26.1111 5.91396 26.177 6.26801 26.2229 6.62471ZM23.9779 12.6164V7.28957C23.9851 6.73318 23.8961 6.17951 23.7148 5.65116C23.3901 4.71899 22.7621 3.91228 21.9237 3.35058C21.0854 2.78888 20.0813 2.50207 19.0604 2.53264C15.3763 2.53264 11.6593 2.53264 7.99991 2.53264C7.44162 2.52982 6.88644 2.61264 6.35524 2.77801C5.37594 3.07463 4.52437 3.6715 3.93046 4.47752C3.33655 5.28354 3.0329 6.25444 3.06589 7.24208C3.06589 10.7959 3.06589 14.3656 3.06589 17.9115C3.06099 18.4484 3.14426 18.9827 3.3126 19.4945C3.61965 20.4331 4.23602 21.2498 5.06843 21.8211C5.90083 22.3924 6.90394 22.6871 7.9259 22.6605H19.085C19.8625 22.6798 20.6329 22.5135 21.3273 22.1765C22.0218 21.8395 22.6188 21.3423 23.0651 20.7293C23.6706 19.9135 23.9825 18.9295 23.9533 17.9274C23.9697 16.1544 23.9779 14.3814 23.9779 12.6164Z" fill="#D5D5D5"/>
<path d="M20.0707 12.6013C20.0707 13.8537 19.6849 15.0779 18.962 16.1192C18.2391 17.1605 17.2117 17.9721 16.0096 18.4513C14.8075 18.9306 13.4847 19.056 12.2086 18.8117C10.9324 18.5673 9.76024 17.9643 8.84019 17.0787C7.92014 16.1932 7.29358 15.0649 7.03974 13.8366C6.7859 12.6083 6.91617 11.3352 7.4141 10.1781C7.91202 9.02113 8.75523 8.03219 9.83709 7.33642C10.919 6.64065 12.1909 6.26929 13.492 6.26929C15.2368 6.26929 16.9101 6.9364 18.1439 8.12389C19.3776 9.31137 20.0707 10.9219 20.0707 12.6013ZM13.5331 8.46966C12.6835 8.46653 11.8519 8.70618 11.1438 9.15827C10.4358 9.61035 9.88301 10.2545 9.55559 11.0092C9.22817 11.7639 9.14082 12.5951 9.30458 13.3976C9.46835 14.2001 9.87588 14.9378 10.4756 15.5172C11.0752 16.0966 11.8401 16.4917 12.6732 16.6524C13.5063 16.8131 14.3703 16.7322 15.1556 16.4199C15.9409 16.1077 16.6123 15.5781 17.0847 14.8984C17.5571 14.2186 17.8093 13.4191 17.8093 12.6013C17.8104 12.0598 17.7006 11.5233 17.4863 11.0226C17.272 10.5219 16.9573 10.0667 16.5602 9.68307C16.1632 9.29942 15.6915 8.99479 15.1721 8.7866C14.6527 8.5784 14.0958 8.4707 13.5331 8.46966Z" fill="#D5D5D5"/>
<path d="M20.3412 4.45557C20.6665 4.45557 20.9845 4.54841 21.2549 4.72238C21.5254 4.89635 21.7362 5.14362 21.8607 5.43292C21.9852 5.72221 22.0177 6.04053 21.9543 6.34765C21.8908 6.65476 21.7342 6.93688 21.5042 7.1583C21.2742 7.37971 20.9811 7.5305 20.6621 7.59158C20.343 7.65267 20.0124 7.62132 19.7118 7.50149C19.4113 7.38166 19.1544 7.17873 18.9737 6.91837C18.793 6.65801 18.6965 6.35192 18.6965 6.03879C18.6965 5.61889 18.8698 5.21619 19.1782 4.91928C19.4867 4.62237 19.905 4.45557 20.3412 4.45557Z" fill="#D5D5D5"/>
</svg>
