<svg width="26" height="24" viewBox="0 0 26 24" fill="none" xmlns="http://www.w3.org/2000/svg">
<path d="M25.9813 2.86514C25.9572 2.4912 25.8447 2.12597 25.6509 1.7933C25.4571 1.46063 25.1865 1.168 24.8566 0.93452C24.3293 0.488906 23.643 0.221026 22.9167 0.177246H3.13283C2.90791 0.227176 2.67361 0.177247 2.45806 0.268785C1.75939 0.471186 1.14835 0.86057 0.708743 1.38352C0.269137 1.90646 0.0224986 2.53735 0.00265614 3.18968C0.00265614 8.87337 0.00265614 14.5488 0.00265614 20.2324C-0.00811765 20.467 0.0139107 20.7018 0.0682512 20.9315C0.26011 21.5852 0.685131 22.1663 1.27975 22.5878C1.87437 23.0093 2.60665 23.2486 3.36712 23.2698H22.6636C23.1386 23.2689 23.6077 23.1761 24.0382 22.9979C24.4687 22.8197 24.8503 22.5604 25.1565 22.238C25.6425 21.7844 25.94 21.1974 26 20.5736V2.93171C25.9843 2.91252 25.9775 2.88865 25.9813 2.86514ZM8.88711 18.3185C8.88711 18.7512 8.69031 18.9259 8.1936 18.9259H6.14118C5.65385 18.9259 5.45703 18.7512 5.45703 18.3268V9.8803C5.45703 9.43093 5.64448 9.26449 6.14118 9.26449H8.22172C8.69968 9.26449 8.88711 9.43926 8.88711 9.87198C8.8996 12.6847 8.8996 15.5002 8.88711 18.3185ZM7.11584 8.43233C6.68017 8.42248 6.25749 8.29856 5.90086 8.07613C5.54424 7.8537 5.26957 7.54267 5.11134 7.1821C4.9531 6.82153 4.91836 6.42749 5.01148 6.04945C5.10459 5.67141 5.32141 5.32621 5.63471 5.05722C5.94801 4.78822 6.34383 4.60741 6.77246 4.53748C7.2011 4.46755 7.64346 4.51162 8.04398 4.66416C8.44451 4.81669 8.78534 5.0709 9.02372 5.39487C9.26209 5.71883 9.38736 6.0981 9.38381 6.48506C9.38269 6.74615 9.32271 7.0044 9.20739 7.24457C9.09207 7.48474 8.92377 7.70198 8.71239 7.88346C8.50101 8.06495 8.25083 8.20702 7.97663 8.30129C7.70243 8.39555 7.40974 8.44011 7.11584 8.43233ZM20.4613 18.9176H18.1746C17.7528 18.9176 17.5748 18.7595 17.5748 18.385V14.2242C17.6017 13.7275 17.5384 13.2301 17.3873 12.7513C17.3108 12.4919 17.1485 12.2589 16.9213 12.0824C16.694 11.9058 16.4124 11.7939 16.1128 11.761C15.7749 11.6954 15.4224 11.7242 15.1037 11.8434C14.7849 11.9626 14.5154 12.1663 14.3321 12.4267C14.0106 12.8793 13.8476 13.4064 13.8635 13.9413C13.8635 15.3976 13.8635 16.8455 13.8635 18.2935C13.8635 18.7845 13.7136 18.9259 13.17 18.9259H11.0333C10.6303 18.9259 10.4428 18.7595 10.4428 18.4017V9.81373C10.4428 9.47254 10.6303 9.31443 11.0239 9.3061H13.3106C13.387 9.29833 13.4644 9.30583 13.5371 9.32805C13.6097 9.35027 13.6759 9.38665 13.7307 9.43452C13.7855 9.48239 13.8276 9.54055 13.8538 9.60472C13.88 9.66889 13.8898 9.73747 13.8823 9.80541V10.4295C14.2665 9.98354 14.7735 9.63289 15.3545 9.41136C15.9356 9.18982 16.5711 9.10485 17.1999 9.16464C17.6744 9.14465 18.1488 9.20785 18.5958 9.35064C19.0428 9.49342 19.4538 9.71298 19.8052 9.9968C20.435 10.578 20.8332 11.3262 20.9392 12.1271C21.047 12.6766 21.0972 13.2338 21.0892 13.7915C21.0892 15.3393 21.0892 16.8871 21.0892 18.435C21.0892 18.7595 20.883 18.9176 20.4613 18.9176Z" fill="#D5D5D5"/>
</svg>
