<svg width="704" height="169" viewBox="0 0 704 169" fill="none" xmlns="http://www.w3.org/2000/svg">
<g clip-path="url(#clip0_159_487)">
<path d="M36.1936 -0.000254931L0 36.1934L37.3247 73.5181L73.5183 37.3244L36.1936 -0.000254931Z" fill="#FFDB0E"/>
<path d="M109.429 73.2344L73.2354 109.428L110.56 146.753L146.754 110.559L109.429 73.2344Z" fill="#FFDB0E"/>
<path d="M37.3245 73.5173L1.13086 109.711L38.4556 147.036L74.6492 110.842L37.3245 73.5173Z" fill="#FFDB0E"/>
<path d="M109.711 1.12865L73.5176 37.3223L110.842 74.647L147.036 38.4534L109.711 1.12865Z" fill="#FFDB0E"/>
<path d="M685.83 17.127H702.258L683.737 71.8872L703.547 129.869H684.864L670.369 85.2551L655.712 129.869H639.123L658.933 71.8872L640.412 17.127H658.772L672.14 58.6803L685.83 17.127Z" fill="white"/>
<path d="M579.783 33.2329V64.6395H604.103V80.7455H579.783V113.763H610.384V129.869H562.066V17.127H610.384V33.2329H579.783Z" fill="white"/>
<path d="M553.957 129.869H535.919C534.952 126.97 534.308 125.198 534.308 116.017V98.3009C534.308 87.8321 530.765 83.9666 522.712 83.9666H516.592V129.869H498.875V17.127H525.611C543.972 17.127 551.864 25.6631 551.864 43.0575V51.9157C551.864 63.512 548.159 71.0819 540.267 74.7863C549.126 78.4906 552.025 87.0268 552.025 98.7841V116.179C552.025 121.655 552.186 125.681 553.957 129.869ZM525.128 33.2329H516.592V67.8607H523.517C530.121 67.8607 534.147 64.9616 534.147 55.9423V44.8292C534.147 36.7762 531.409 33.2329 525.128 33.2329Z" fill="white"/>
<path d="M435.51 17.127H453.226V104.099C453.226 112.152 456.77 115.051 462.407 115.051C468.044 115.051 471.587 112.152 471.587 104.099V17.127H488.337V102.972C488.337 121.01 479.318 131.318 461.924 131.318C444.529 131.318 435.51 121.01 435.51 102.972V17.127Z" fill="white"/>
<path d="M375.362 33.2329V17.127H430.123V33.2329H411.601V129.869H393.884V33.2329H375.362Z" fill="white"/>
<path d="M351.243 129.869L329.178 48.2114V129.869H313.233V17.127H335.46L353.659 84.6109V17.127H369.443V129.869H351.243Z" fill="white"/>
<path d="M273.423 33.2329V64.6395H297.743V80.7455H273.423V113.763H304.024V129.869H255.706V17.127H304.024V33.2329H273.423Z" fill="white"/>
<path d="M205.723 17.127L219.252 109.092L232.781 17.127H249.048L231.654 129.869H205.24L187.846 17.127H205.723Z" fill="white"/>
<path d="M649.556 168.655H637.272V148.154H649.527V150.044H639.334V157.431H648.582V159.292H639.334V166.766H649.556V168.655Z" fill="white"/>
<path d="M623.916 168.97C618.189 168.97 614.295 164.704 614.295 158.405C614.295 152.105 618.246 147.811 624.03 147.811C628.44 147.811 631.904 150.473 632.734 154.539H630.53C629.671 151.59 627.151 149.786 623.944 149.786C619.449 149.786 616.442 153.222 616.442 158.405C616.442 163.559 619.449 166.995 623.944 166.995C627.18 166.995 629.757 165.248 630.644 162.499H632.849C631.904 166.365 628.325 168.97 623.916 168.97Z" fill="white"/>
<path d="M597.052 168.655H594.962L602.492 148.154H605.041L612.657 168.655H610.51L608.505 163.215H599.056L597.052 168.655ZM603.494 151.046L599.686 161.411H607.847L604.01 151.046C603.924 150.76 603.781 150.416 603.752 150.216C603.724 150.388 603.609 150.76 603.494 151.046Z" fill="white"/>
<path d="M587.261 161.125H581.506V168.655H579.444V148.154H587.261C591.212 148.154 593.703 150.731 593.703 154.597C593.703 158.319 591.184 161.125 587.261 161.125ZM586.975 150.015H581.506V159.264H586.86C589.838 159.264 591.556 157.374 591.556 154.568C591.556 151.733 589.809 150.015 586.975 150.015Z" fill="white"/>
<path d="M561.22 153.479C561.22 150.043 563.968 147.781 568.091 147.781C571.785 147.781 574.219 149.843 574.534 153.279H572.444C572.215 150.959 570.64 149.642 568.063 149.642C565.171 149.642 563.281 151.131 563.281 153.451C563.281 155.254 564.341 156.4 566.488 156.944L570.01 157.803C573.217 158.576 574.877 160.408 574.877 163.186C574.877 166.736 572.129 168.998 567.891 168.998C563.911 168.998 561.22 166.908 560.962 163.558H563.081C563.195 165.705 565.085 167.108 567.891 167.108C570.897 167.108 572.816 165.648 572.816 163.3C572.816 161.468 571.785 160.265 569.58 159.75L566.116 158.891C562.909 158.118 561.22 156.285 561.22 153.479Z" fill="white"/>
<path d="M547.437 148.154V160.495L557.315 148.154H559.777L552.82 156.83L559.892 168.655H557.487L551.474 158.548L547.437 163.559V168.655H545.375V148.154H547.437Z" fill="white"/>
<path d="M528.263 168.655H526.201V148.154H533.846C537.998 148.154 540.518 150.445 540.518 154.081C540.518 157.03 538.971 159.092 536.337 159.808L540.718 168.655H538.427L534.247 160.151H528.263V168.655ZM528.263 150.015V158.29H533.903C536.738 158.29 538.399 156.744 538.399 154.139C538.399 151.476 536.652 150.015 533.846 150.015H528.263Z" fill="white"/>
<path d="M521.605 158.404C521.605 164.617 517.567 168.998 511.841 168.998C506.086 168.998 502.077 164.617 502.077 158.404C502.077 152.191 506.114 147.781 511.841 147.781C517.596 147.781 521.605 152.162 521.605 158.404ZM519.486 158.404C519.486 153.279 516.365 149.786 511.841 149.786C507.317 149.786 504.225 153.279 504.225 158.404C504.225 163.529 507.317 167.022 511.841 167.022C516.365 167.022 519.486 163.501 519.486 158.404Z" fill="white"/>
<path d="M479.139 168.655L473.04 148.154H475.187L479.339 162.242C479.626 163.244 479.883 164.275 480.141 165.62C480.485 164.131 480.771 163.244 481.086 162.242L485.553 148.154H487.7L492.167 162.242C492.482 163.272 492.768 164.303 493.083 165.62C493.398 164.046 493.656 163.043 493.885 162.27L498.122 148.154H500.213L494.057 168.655H492.109L486.612 151.247L481.114 168.655H479.139Z" fill="white"/>
<path d="M460.347 159.636H451.958V168.655H449.896V148.154H461.98V150.044H451.958V157.775H460.347V159.636Z" fill="white"/>
<path d="M445.298 158.404C445.298 164.617 441.261 168.998 435.534 168.998C429.779 168.998 425.771 164.617 425.771 158.404C425.771 152.191 429.808 147.781 435.534 147.781C441.289 147.781 445.298 152.162 445.298 158.404ZM443.179 158.404C443.179 153.279 440.058 149.786 435.534 149.786C431.01 149.786 427.918 153.279 427.918 158.404C427.918 163.529 431.01 167.022 435.534 167.022C440.058 167.022 443.179 163.501 443.179 158.404Z" fill="white"/>
<path d="M413.185 168.655H400.901V148.154H413.156V150.044H402.963V157.431H412.211V159.292H402.963V166.766H413.185V168.655Z" fill="white"/>
<path d="M383.79 168.655H381.729V148.154H389.373C393.525 148.154 396.045 150.445 396.045 154.081C396.045 157.03 394.499 159.092 391.865 159.808L396.245 168.655H393.955L389.774 160.151H383.79V168.655ZM383.79 150.015V158.29H389.431C392.265 158.29 393.926 156.744 393.926 154.139C393.926 151.476 392.179 150.015 389.373 150.015H383.79Z" fill="white"/>
<path d="M360.875 161.526V148.154H362.937V161.44C362.937 165.048 364.912 166.995 368.491 166.995C371.985 166.995 373.96 164.99 373.96 161.44V148.154H376.022V161.526C376.022 166.164 373.158 168.999 368.491 168.999C363.738 168.999 360.875 166.193 360.875 161.526Z" fill="white"/>
<path d="M342.633 150.044V148.154H357.321V150.044H350.994V168.655H348.932V150.044H342.633Z" fill="white"/>
<path d="M323.924 161.526V148.154H325.985V161.44C325.985 165.048 327.961 166.995 331.54 166.995C335.033 166.995 337.009 164.99 337.009 161.44V148.154H339.071V161.526C339.071 166.164 336.207 168.999 331.54 168.999C326.787 168.999 323.924 166.193 323.924 161.526Z" fill="white"/>
<path d="M318.112 159.636H309.723V168.655H307.661V148.154H319.744V150.044H309.723V157.775H318.112V159.636Z" fill="white"/>
<path d="M293.817 168.655H281.533V148.154H293.788V150.044H283.595V157.431H292.843V159.292H283.595V166.766H293.817V168.655Z" fill="white"/>
<path d="M262.548 168.655H260.486V148.154H262.548V157.288H273.629V148.154H275.662V168.655H273.629V159.207H262.548V168.655Z" fill="white"/>
<path d="M242.101 150.044V148.154H256.789V150.044H250.461V168.655H248.4V150.044H242.101Z" fill="white"/>
</g>
<defs>
<clipPath id="clip0_159_487">
<rect width="704" height="169" fill="white"/>
</clipPath>
</defs>
</svg>
