<svg width="196" height="95" viewBox="0 0 196 95" fill="none" xmlns="http://www.w3.org/2000/svg">
<path d="M3.0144 32.8118H7.39875L8.9574 37.9961L11.3934 46.2289C12.9186 51.1027 14.2661 55.6699 15.4359 59.9304H15.7275C16.8672 55.8881 18.2155 51.3488 19.7725 46.3126L22.3493 37.6282L23.7622 32.8142H28.3426L29.758 37.6282L32.3398 46.3293C33.8985 51.3607 35.246 55.9 36.3823 59.9471H36.6789C37.946 55.5034 39.6672 49.6549 41.8426 42.4016L43.1574 38.0057L44.7161 32.8213H49.1004L39.0647 65.2247H34.1398L26.2007 38.7821H25.9091L17.97 65.2151H13.0476L3.0144 32.8118Z" fill="white"/>
<path d="M52.2657 53.874C52.2992 56.682 53.1112 58.8577 54.7017 60.401C56.2922 61.9444 58.3378 62.7153 60.8383 62.7137C62.8495 62.7137 64.5255 62.1666 65.8663 61.0724C67.199 59.9728 68.1075 58.4822 68.4481 56.8365H72.4428C72.0841 59.5808 70.8414 61.7867 68.7146 63.4543C66.5877 65.1219 63.9657 65.9557 60.8483 65.9557C57.0824 65.9557 54.0657 64.8678 51.7981 62.6922C49.5305 60.5165 48.3942 57.3454 48.3892 53.1788C48.3892 50.5556 48.9087 48.2947 49.9478 46.3961C50.9044 44.5758 52.412 43.069 54.2769 42.0695C56.1439 41.0804 58.295 40.5866 60.7302 40.5882C62.9001 40.554 65.0389 41.0817 66.9171 42.1149C68.6991 43.0972 70.158 44.5317 71.1305 46.2576C72.1403 48.0586 72.6557 50.0726 72.6288 52.1132V53.874H52.2657ZM52.2657 51.2818H68.6316C68.464 48.9979 67.6771 47.1845 66.271 45.8419C64.8648 44.4992 62.9719 43.8318 60.592 43.8398C58.254 43.8398 56.3266 44.488 54.8098 45.7845C53.2931 47.081 52.445 48.9134 52.2657 51.2818Z" fill="white"/>
<path d="M100.534 46.6518C101.477 48.5631 101.948 50.785 101.946 53.3174C101.945 55.8498 101.474 58.0717 100.534 59.983C99.6767 61.8025 98.2919 63.3522 96.5414 64.4506C94.7699 65.5289 92.7018 66.0842 90.5984 66.0465C88.4101 66.076 86.2896 65.325 84.6554 63.9417C82.966 62.5369 81.8615 60.6774 81.3419 58.3632H81.1484L80.9523 65.2151H77.2517V32.8118H81.1484V48.2716H81.3419C81.8632 45.9574 82.9677 44.0979 84.6554 42.6931C86.2896 41.3098 88.4101 40.5588 90.5984 40.5883C92.7016 40.5517 94.7694 41.107 96.5414 42.1842C98.2919 43.2826 99.6767 44.8323 100.534 46.6518ZM98.002 53.3174C98.002 50.4792 97.2311 48.2031 95.6892 46.4894C94.1473 44.7756 92.1093 43.9195 89.5752 43.9211C88.0699 43.8888 86.5848 44.2549 85.2858 44.9784C83.9869 45.7019 82.9251 46.7545 82.2193 48.0184C81.5033 49.2752 81.1348 50.6842 81.1484 52.1133V54.5215C81.1351 55.9513 81.5036 57.361 82.2193 58.6188C82.9257 59.8821 83.9876 60.934 85.2865 61.6571C86.5854 62.3801 88.0702 62.746 89.5752 62.7137C92.1076 62.7137 94.1456 61.8576 95.6892 60.1454C97.2327 58.4333 98.0037 56.1572 98.002 53.3174Z" fill="white"/>
<path d="M114.954 45.4716C116.479 44.4379 118.524 43.921 121.09 43.921C123.047 43.8912 124.976 44.358 126.679 45.2733C128.32 46.1702 129.656 47.4972 130.525 49.0958C131.452 50.7475 131.915 52.6683 131.915 54.8583C131.915 57.2044 131.355 59.2105 130.233 60.8765C129.124 62.534 127.534 63.8521 125.656 64.6727C123.633 65.5558 121.428 65.999 119.202 65.97C114.588 65.97 111.186 64.527 108.996 61.641C106.805 58.755 105.709 54.7046 105.707 49.49C105.707 44.0286 106.828 39.7624 109.068 36.6916C111.309 33.6208 114.719 32.0854 119.298 32.0854C122.415 32.0854 125.087 32.8332 127.312 34.3288C129.538 35.8244 130.893 38.0391 131.377 40.9729H125.485C125.231 39.7208 124.503 38.6005 123.438 37.8241C122.399 37.0834 121.019 36.7131 119.298 36.7131C116.636 36.7131 114.709 37.7548 113.516 39.8381C112.322 41.9214 111.705 45.2311 111.663 49.7672H112.005C112.388 48.0352 113.44 46.5026 114.954 45.4716ZM125.718 54.844C125.718 53.0235 125.126 51.5104 123.941 50.3047C122.756 49.099 121.173 48.497 119.192 48.4986C117.181 48.4986 115.573 49.1006 114.368 50.3047C113.163 51.5088 112.562 53.0219 112.565 54.844C112.565 56.7266 113.183 58.2469 114.418 59.4048C115.653 60.5627 117.277 61.1417 119.288 61.1417C121.237 61.1417 122.796 60.5547 123.964 59.3809C125.132 58.2071 125.717 56.6947 125.718 54.844Z" fill="white"/>
<path d="M140.307 43.1805C139.025 43.8908 137.345 44.2452 135.267 44.2436H134.681V38.5982C137.671 38.5982 140.101 38.0885 141.971 37.0691C143.842 36.0498 144.954 34.6307 145.307 32.8118H149.983V65.2151H143.651V39.9862L143.359 39.9384C142.709 41.287 141.645 42.4171 140.307 43.1805Z" fill="white"/>
<path d="M154.896 49.0121C154.896 43.5825 156.057 39.4008 158.38 36.467C160.703 33.5332 164.186 32.0679 168.828 32.0711C173.473 32.0711 176.947 33.5364 179.251 36.467C181.556 39.3976 182.709 43.5793 182.711 49.0121C182.711 54.4434 181.55 58.6171 179.229 61.5334C176.907 64.4497 173.441 65.9078 168.828 65.9078C164.152 65.9078 160.661 64.4425 158.355 61.5119C156.049 58.5813 154.896 54.4147 154.896 49.0121ZM176.086 49.0121C176.086 44.9395 175.5 41.8998 174.326 39.893C173.153 37.8861 171.321 36.8835 168.828 36.8851C166.294 36.8851 164.443 37.8797 163.275 39.8691C162.107 41.8584 161.52 44.9061 161.515 49.0121C161.515 53.1166 162.102 56.1563 163.275 58.1313C164.448 60.1063 166.299 61.0938 168.828 61.0938C171.327 61.0938 173.162 60.0984 174.331 58.1074C175.501 56.1165 176.086 53.0848 176.086 49.0121Z" fill="white"/>
<path d="M106.298 72.2415C110.897 78.8094 117.254 84.1121 124.726 87.6115C132.198 91.111 140.517 92.6825 148.84 92.1667C174.9 90.5635 194.646 69.3237 192.945 44.7264C191.244 20.129 168.741 1.49094 142.684 3.0964C134.042 3.62596 125.72 6.38638 118.627 11.0763C111.533 15.7662 105.941 22.2054 102.461 29.6908" stroke="#783BFA" stroke-width="5" stroke-miterlimit="10"/>
<path opacity="0.5" d="M13.5472 15.5993C13.5472 16.2573 13.3932 16.8033 13.0852 17.2513C12.7772 17.6993 12.3712 18.0353 11.8532 18.2593C11.3352 18.4833 10.7612 18.5953 10.1172 18.5953H7.48518V22.4033H6.30918V12.6033H10.1172C12.3992 12.6033 13.5472 13.6113 13.5472 15.5993ZM9.90718 17.5313C11.5312 17.5313 12.3572 16.8873 12.3572 15.5993C12.3572 14.8853 12.1332 14.3813 11.6992 14.1013C11.2652 13.8213 10.6632 13.6673 9.90718 13.6673H7.48518V17.5313H9.90718ZM15.8596 22.1513C15.2716 21.8433 14.8096 21.3813 14.4736 20.7933C14.1236 20.2053 13.9556 19.5333 13.9556 18.7633C13.9556 18.0213 14.1236 17.3633 14.4736 16.7753C14.8096 16.2013 15.2716 15.7533 15.8596 15.4313C16.4336 15.1233 17.0496 14.9553 17.7216 14.9553C18.3796 14.9553 18.9956 15.1233 19.5836 15.4313C20.1576 15.7533 20.6196 16.2013 20.9696 16.7753C21.3056 17.3633 21.4876 18.0213 21.4876 18.7633C21.4876 19.5333 21.3056 20.2053 20.9696 20.7933C20.6196 21.3813 20.1576 21.8433 19.5836 22.1513C18.9956 22.4733 18.3796 22.6273 17.7216 22.6273C17.0496 22.6273 16.4336 22.4733 15.8596 22.1513ZM19.6116 20.8493C20.0876 20.3453 20.3396 19.6453 20.3396 18.7633C20.3396 17.9093 20.0876 17.2233 19.6116 16.7193C19.1356 16.2153 18.5056 15.9633 17.7216 15.9633C16.9376 15.9633 16.2936 16.2153 15.8176 16.7193C15.3416 17.2233 15.1036 17.9093 15.1036 18.7633C15.1036 19.6453 15.3416 20.3453 15.8176 20.8493C16.2936 21.3673 16.9376 21.6193 17.7216 21.6193C18.5056 21.6193 19.1356 21.3673 19.6116 20.8493ZM24.3033 22.4033L21.6293 15.1793H22.8193L23.7573 17.7553L24.0653 18.5953C24.3453 19.3793 24.6113 20.1493 24.8773 20.9193H24.9333L25.5773 18.7913L25.8993 17.7413L26.6833 15.1793H27.7473L28.5313 17.7413L28.8533 18.7913L29.4973 20.9193H29.5533C29.8053 20.1493 30.0853 19.3793 30.3653 18.5953L30.6733 17.7553L31.6113 15.1793H32.8013L30.1273 22.4033H29.0353L27.2433 16.5793H27.1873L25.3953 22.4033H24.3033ZM39.8905 18.9733H34.0385C34.0385 19.8273 34.2765 20.4853 34.7385 20.9473C35.1865 21.4233 35.7745 21.6473 36.5025 21.6473C37.0765 21.6473 37.5525 21.4933 37.9445 21.1573C38.3225 20.8213 38.5745 20.4013 38.6865 19.8693H39.8345C39.7225 20.7093 39.3725 21.3673 38.7565 21.8713C38.1405 22.3753 37.3985 22.6273 36.5025 22.6273C35.4105 22.6273 34.5425 22.3053 33.8985 21.6473C33.2405 20.9893 32.9185 20.0233 32.9185 18.7633C32.9185 17.9793 33.0585 17.2933 33.3665 16.7193C33.6605 16.1453 34.0805 15.7113 34.6125 15.4033C35.1445 15.1093 35.7745 14.9553 36.4745 14.9553C37.1325 14.9553 37.7205 15.1093 38.2525 15.4173C38.7705 15.7253 39.1765 16.1453 39.4565 16.6773C39.7365 17.2093 39.8905 17.7973 39.8905 18.4413V18.9733ZM34.7665 16.5233C34.3185 16.9153 34.0805 17.4753 34.0385 18.1893H38.7425C38.6865 17.5033 38.4625 16.9573 38.0565 16.5513C37.6505 16.1453 37.1045 15.9353 36.4325 15.9353C35.7605 15.9353 35.2005 16.1313 34.7665 16.5233ZM42.4015 17.9093C42.5555 16.9013 42.8635 16.1733 43.3395 15.7253C43.8155 15.2913 44.5015 15.0673 45.4115 15.0673V16.0753C44.6555 16.1313 44.0535 16.2853 43.6055 16.5653C43.1575 16.8453 42.8355 17.2373 42.6395 17.7693C42.4435 18.3013 42.3455 18.9873 42.3455 19.8273V22.4033H41.2255V15.1793H42.3035L42.3455 17.9093H42.4015ZM52.5233 18.9733H46.6713C46.6713 19.8273 46.9093 20.4853 47.3713 20.9473C47.8193 21.4233 48.4073 21.6473 49.1353 21.6473C49.7093 21.6473 50.1853 21.4933 50.5773 21.1573C50.9553 20.8213 51.2073 20.4013 51.3193 19.8693H52.4673C52.3553 20.7093 52.0053 21.3673 51.3893 21.8713C50.7733 22.3753 50.0313 22.6273 49.1353 22.6273C48.0433 22.6273 47.1753 22.3053 46.5313 21.6473C45.8733 20.9893 45.5513 20.0233 45.5513 18.7633C45.5513 17.9793 45.6913 17.2933 45.9993 16.7193C46.2933 16.1453 46.7133 15.7113 47.2453 15.4033C47.7773 15.1093 48.4073 14.9553 49.1073 14.9553C49.7653 14.9553 50.3533 15.1093 50.8853 15.4173C51.4033 15.7253 51.8093 16.1453 52.0893 16.6773C52.3693 17.2093 52.5233 17.7973 52.5233 18.4413V18.9733ZM47.3993 16.5233C46.9513 16.9153 46.7133 17.4753 46.6713 18.1893H51.3753C51.3193 17.5033 51.0953 16.9573 50.6893 16.5513C50.2833 16.1453 49.7373 15.9353 49.0653 15.9353C48.3933 15.9353 47.8333 16.1313 47.3993 16.5233ZM59.4863 12.6033H60.6063V22.4033H59.5423L59.4863 20.3313H59.4303C59.2763 21.0313 58.9543 21.6053 58.4783 22.0253C57.9883 22.4453 57.4143 22.6553 56.7703 22.6553C56.1263 22.6553 55.5523 22.5013 55.0623 22.1793C54.5583 21.8573 54.1803 21.4093 53.9143 20.8213C53.6343 20.2473 53.5083 19.5753 53.5083 18.8053C53.5083 18.0493 53.6343 17.3773 53.9143 16.7893C54.1803 16.2153 54.5583 15.7673 55.0623 15.4453C55.5523 15.1233 56.1263 14.9553 56.7703 14.9553C57.4143 14.9553 57.9883 15.1793 58.4783 15.5993C58.9543 16.0193 59.2763 16.5793 59.4303 17.2793H59.4863V12.6033ZM58.3243 21.3113C58.6883 21.0873 58.9683 20.7933 59.1783 20.4153C59.3743 20.0373 59.4863 19.6173 59.4863 19.1693V18.4413C59.4863 17.9933 59.3743 17.5873 59.1783 17.2093C58.9683 16.8313 58.6883 16.5233 58.3243 16.2993C57.9603 16.0753 57.5403 15.9633 57.0643 15.9633C56.3363 15.9633 55.7483 16.2293 55.3003 16.7473C54.8523 17.2653 54.6423 17.9513 54.6423 18.8053C54.6423 19.6733 54.8523 20.3593 55.3003 20.8773C55.7483 21.3953 56.3363 21.6473 57.0643 21.6473C57.5403 21.6473 57.9603 21.5353 58.3243 21.3113ZM70.1089 17.1813C70.8929 17.2233 71.5229 17.4613 71.9989 17.9093C72.4749 18.3573 72.7269 18.9313 72.7269 19.6173C72.7269 20.1773 72.5869 20.6533 72.3349 21.0733C72.0689 21.4933 71.7049 21.8293 71.2289 22.0533C70.7529 22.2913 70.2069 22.4033 69.5909 22.4033H65.1529V12.6033H69.5909C70.4449 12.6033 71.1309 12.8273 71.6629 13.2473C72.1949 13.6813 72.4609 14.2413 72.4609 14.9413C72.4609 15.5573 72.2369 16.0613 71.8169 16.4533C71.3829 16.8453 70.8089 17.0693 70.1089 17.0973V17.1813ZM66.3289 13.6673V16.8873H68.9889C69.6609 16.8873 70.2069 16.7333 70.6269 16.4113C71.0469 16.1033 71.2569 15.6833 71.2569 15.1513C71.2569 14.7033 71.0889 14.3533 70.7809 14.0733C70.4729 13.8073 70.0529 13.6673 69.5349 13.6673H66.3289ZM69.5349 21.3393C70.1369 21.3393 70.6269 21.1853 70.9909 20.8773C71.3549 20.5693 71.5369 20.1633 71.5369 19.6453C71.5369 19.1413 71.3129 18.7213 70.8649 18.4133C70.4169 18.1053 69.8429 17.9513 69.1289 17.9513H66.3289V21.3393H69.5349ZM76.4246 21.1293C76.6346 20.5413 76.8306 20.0233 77.0126 19.5753C77.1806 19.1273 77.3346 18.7493 77.4606 18.4413C77.7406 17.7413 77.9646 17.1953 78.1046 16.8033L78.7066 15.1793H79.9386L76.9426 22.5013C76.6486 23.2153 76.3546 23.7473 76.0606 24.1113C75.7526 24.4753 75.3886 24.7273 74.9686 24.8673C74.5486 25.0073 73.9886 25.0493 73.2886 25.0213V23.9713L73.7226 23.9853C74.0866 23.9853 74.3666 23.9573 74.5766 23.8733C74.7866 23.8033 74.9686 23.6773 75.1366 23.4813C75.3046 23.2853 75.4726 23.0053 75.6546 22.6133L75.7666 22.3753L72.9946 15.1793H74.2406L74.8426 16.8453L75.1366 17.6573C75.6406 19.0713 76.0606 20.2333 76.3686 21.1293H76.4246Z" fill="white"/>
</svg>
