<svg width="23" height="24" viewBox="0 0 23 24" fill="none" xmlns="http://www.w3.org/2000/svg">
<path d="M0.00976109 23.2698C0.556682 22.638 1.09385 22.0062 1.64077 21.3553L8.82887 13.1706L8.97537 12.9887L0 0.180294H0.195326H6.66073C6.72298 0.176111 6.78506 0.190279 6.83902 0.220989C6.89298 0.251698 6.93633 0.297534 6.96349 0.352597C8.85818 3.05212 10.7496 5.74847 12.6378 8.44161L12.7941 8.66178L13.9465 7.3503C15.9779 5.03369 18.0191 2.71708 20.0408 0.400464C20.0984 0.323405 20.1756 0.262518 20.2647 0.223881C20.3538 0.185243 20.4517 0.170213 20.5486 0.180294C21.1053 0.180294 21.662 0.180294 22.2773 0.180294L13.7023 9.94453C13.7433 10.0144 13.789 10.0816 13.8391 10.1456C16.8471 14.4406 19.8585 18.7419 22.873 23.0497C22.921 23.1164 22.9635 23.1869 23 23.2603H16.1635C16.14 23.2122 16.1105 23.1672 16.0756 23.1263L10.0009 14.4533C9.96061 14.4188 9.9182 14.3869 9.87388 14.3576C9.81368 14.435 9.74844 14.5086 9.67856 14.5778L4.79533 20.1587L2.06072 23.2698H0.00976109ZM2.75415 1.68321L2.9104 1.91297L16.9936 21.6616C17.029 21.7205 17.081 21.7682 17.1434 21.7987C17.2058 21.8293 17.2759 21.8415 17.3452 21.8339H19.9724H20.2263L20.031 21.5563C15.4212 15.0979 10.818 8.63944 6.22123 2.181C6.12696 2.01318 5.98351 1.87694 5.8094 1.7899C5.63528 1.70287 5.43852 1.66904 5.24458 1.6928C4.4535 1.71194 3.63313 1.68321 2.75415 1.68321Z" fill="#D5D5D5"/>
</svg>
