<svg width="56" height="56" viewBox="0 0 56 56" fill="none" xmlns="http://www.w3.org/2000/svg">
<circle cx="28" cy="28" r="28" fill="#FFDE21"/>
<g clip-path="url(#clip0_180_22)">
<path d="M9.37591 26.7284C9.50189 33.9905 15.0561 40.5815 22.1039 42.1896C23.2753 42.4574 24.4679 42.4917 25.6377 42.7447C27.0741 44.6827 22.8565 43.726 21.9125 43.5235C8.85567 40.7366 3.58941 24.4427 12.2356 14.3186C22.7812 1.97249 43.1542 8.89494 43.8953 24.9309C44.1784 25.0043 44.2225 24.8133 44.3861 24.6876C45.0029 24.2141 46.4409 22.3692 46.9988 22.2174C47.8577 22.3121 47.9902 22.8476 47.4913 23.5431C47.0773 24.1227 44.8377 26.317 44.2324 26.8149C43.9542 27.0435 43.4716 27.4076 43.1248 27.2623C42.8467 27.1464 39.0986 23.4598 39.0152 23.1823C38.9465 22.9537 38.9367 22.6909 39.0643 22.4786C39.218 22.3284 39.4242 22.1782 39.6549 22.2288C40.2422 22.3562 41.8733 24.4982 42.5031 24.9292C42.6896 23.757 42.3281 22.4721 42.0107 21.339C40.1342 14.637 33.7277 9.53168 26.7142 9.41902C27.169 12.9015 24.8213 12.8623 25.2434 9.41902C16.7886 9.58229 9.55424 16.81 9.37591 25.259H11.9117C12.9735 25.259 12.6643 26.7284 11.9117 26.7284H9.37591Z" fill="black"/>
<path d="M45.3677 44.0343H47.7399C47.9019 44.0343 48.0016 44.4262 48 44.6058C47.9951 45.7878 46.1366 45.2164 45.3661 45.3405C45.8421 48.8947 43.5812 48.8817 44.0589 45.3405H35.1428C34.8777 45.3405 34.5456 44.4882 34.8205 44.2041C36.1473 42.7494 43.6924 30.8898 44.5023 30.6694C44.8016 30.5878 45.3661 30.8343 45.3661 31.0547V44.0343H45.3677ZM36.6969 44.0343H43.8135L44.0589 43.7894V33.5854L36.6969 44.0343Z" fill="black"/>
<path d="M27.5356 46.6465H35.6337C36.064 46.6465 36.064 47.9526 35.6337 47.9526H25.8178C25.2959 47.9526 25.3172 47.2016 25.4939 46.8114L33.9961 36.6857C35.7384 31.9526 28.653 30.1665 26.963 34.4016C26.6292 35.2392 26.9466 36.2514 26.235 36.622C24.6382 37.0057 25.6247 34.0441 26.0288 33.3061C29.0783 27.7371 38.2464 31.6457 34.9368 37.7877L27.5339 46.6449L27.5356 46.6465Z" fill="black"/>
<path d="M34.4866 16.8245C34.9217 16.9159 35.3585 17.373 35.0444 17.8008L27.8608 25.1804C28.669 27.2539 26.0988 29.0351 24.525 27.3665C23.5385 26.32 24.3156 25.5836 24.0178 24.9371C23.6759 24.1959 20.8964 22.2253 20.6935 21.5526C20.4906 20.88 20.8457 20.5143 21.5295 20.7183C22.143 20.9012 24.1782 23.5559 24.9209 24.0359L26.925 24.0914L34.4866 16.8261V16.8245ZM25.6767 25.44C25.253 25.5804 25.1843 26.5861 25.9827 26.5812C27.051 26.573 26.7941 25.0677 25.6767 25.44Z" fill="black"/>
<path d="M25.6769 25.44C26.7943 25.0678 27.0511 26.5731 25.9828 26.5813C25.1844 26.5862 25.2532 25.5821 25.6769 25.44Z" fill="white"/>
</g>
<defs>
<clipPath id="clip0_180_22">
<rect width="40" height="40" fill="white" transform="translate(8 8)"/>
</clipPath>
</defs>
</svg>
