<svg width="54" height="54" viewBox="0 0 54 54" fill="none" xmlns="http://www.w3.org/2000/svg">
<circle cx="27" cy="27" r="27" fill="#FFDE21"/>
<g clip-path="url(#clip0_180_96)">
<path d="M14.4274 24.0637C14.3135 24.0296 14.1496 23.7453 14.0984 23.6143C13.882 23.064 13.8283 19.9588 14.3096 19.6195C14.9996 19.1334 20.3533 19.6968 21.5311 19.4767C21.8755 17.5585 21.4261 14.3498 24.0236 14.1009C25.5368 13.9555 28.3928 13.9777 29.9226 14.1009C32.7185 14.3262 32.1706 17.3987 32.5432 19.4767C34.6682 19.6653 37.1889 19.2277 39.2654 19.4767C39.8325 19.5435 40.0322 19.7531 40.0975 20.3283C40.1589 20.8642 40.1615 23.2448 39.9976 23.6379C39.9579 23.7348 39.6955 24.065 39.6469 24.065H33.8221V38.5427C33.8221 38.5794 33.6236 38.9004 33.566 38.9358H20.5082C20.4506 38.9004 20.2522 38.5794 20.2522 38.5427V24.065H14.4274V24.0637ZM22.8125 19.478H31.2617C31.1759 18.6604 31.1542 15.9876 30.5294 15.5421C30.2593 15.3495 29.7409 15.3037 29.4106 15.2801C28.1112 15.1857 25.8133 15.1582 24.5357 15.2801C24.0197 15.3299 23.5422 15.457 23.2708 15.9509C23.1236 16.2195 22.6884 19.3509 22.8113 19.4767L22.8125 19.478ZM38.8147 20.7882H15.2595V22.7535H38.8147V20.7882ZM32.5419 24.0637H21.5324V37.8208H32.5419V24.0637Z" fill="black"/>
<path d="M39.7107 37.8208V30.6147H35.2941C34.6156 29.5311 34.8831 27.6025 35.9559 26.8373C37.1439 25.9896 40.3444 26.1324 41.8947 25.7092C42.7601 25.4734 42.9163 25.1236 43.0379 24.2589C43.3899 21.7695 43.3144 19.1635 43.6946 16.6767C44.0159 14.5725 45.1079 13.8113 47.2061 14.0995C47.5748 14.1506 47.7041 14.2725 47.8462 14.6236C47.7425 18.376 48.1816 22.5084 47.9089 26.2307C47.7092 28.9507 45.9887 30.781 43.2491 30.633L43.0391 30.9422L43.0571 37.6059C43.2017 38.0566 44.4512 37.6649 44.8327 37.885C45.227 38.1247 45.0759 39 44.7674 39H38.1105C38.0234 39 37.8071 38.675 37.7866 38.5335C37.6355 37.4801 39.0872 37.8902 39.7107 37.8208ZM36.2542 29.4355H43.8713C44.5574 29.4355 45.6942 28.7594 46.0898 28.1685C46.1807 28.0322 46.6236 27.0902 46.6236 27.0116V15.4818C46.6236 15.0796 45.1911 15.2957 44.9889 16.2981C44.4537 18.9329 44.72 22.2595 44.1785 24.9022C43.9622 25.9621 43.4322 26.6015 42.4042 26.8858C40.9768 27.2815 37.9799 27.2199 36.8597 27.7623C36.1416 28.1095 36.2235 28.7332 36.2542 29.4355ZM41.887 30.6147H40.9909V37.8208C41.3019 37.8116 41.6796 37.9203 41.887 37.6242V30.6147Z" fill="black"/>
<path d="M14.3634 30.6147V37.8208C14.9869 37.8902 16.4386 37.4801 16.2875 38.5335C16.267 38.675 16.0507 39 15.9636 39H9.30671C9.21454 39 8.99819 38.5663 8.99691 38.4104C8.99307 37.3006 10.8314 38.1837 11.017 37.6059L11.035 30.6133C7.98813 30.8505 6.35079 28.9428 6.16388 25.9687C5.9821 23.0666 5.90785 18.0642 6.16388 15.2145C6.21637 14.659 6.25733 14.1847 6.86926 14.0995C8.91754 13.8152 10.0953 14.5712 10.3936 16.6623C10.7418 19.1071 10.6701 21.6725 11.0503 24.1134C11.2039 25.1 11.2628 25.4839 12.2831 25.7341C13.7988 26.1036 16.9622 26.0119 18.1182 26.8373C18.5406 27.1387 19.0117 27.8056 19.0924 28.3297C19.1474 28.686 19.2114 30.6147 18.78 30.6147H14.3634ZM7.45046 15.4818V26.8806C7.45046 27.2474 8.05854 28.3087 8.34274 28.5878C8.69095 28.9324 9.74709 29.4355 10.2028 29.4355H17.7559C18.0862 29.4355 18.0106 28.0165 17.1222 27.727C15.4298 27.1754 11.5777 27.4374 10.4678 26.1521C10.1862 25.8259 9.97881 25.3293 9.89559 24.9035C9.3848 22.2922 9.67796 18.849 9.08652 16.2981C8.89706 15.4792 7.61048 14.9512 7.45174 15.4818H7.45046ZM13.0832 30.6147C12.7389 30.6278 12.2383 30.4745 12.1871 30.9422L12.3074 37.7644L13.0845 37.8221V30.616L13.0832 30.6147Z" fill="black"/>
</g>
<defs>
<clipPath id="clip0_180_96">
<rect width="42" height="25" fill="white" transform="translate(6 14)"/>
</clipPath>
</defs>
</svg>
