<svg width="54" height="54" viewBox="0 0 54 54" fill="none" xmlns="http://www.w3.org/2000/svg">
<circle cx="27" cy="27" r="27" fill="#FFDE21"/>
<g clip-path="url(#clip0_180_43)">
<path d="M9.06483 34.0984C9.16296 33.4856 9.81752 32.7238 10.3416 32.4222C10.2654 32.1062 10.0242 31.8368 9.93066 31.5352C9.66283 30.6589 9.66398 28.1529 9.75749 27.186C9.85562 26.1821 10.4548 25.2999 11.458 25.127C12.0629 25.0221 14.1686 25.009 14.7712 25.1056C15.48 25.22 16.3043 25.9997 16.4244 26.7365C16.5583 27.5615 16.5467 30.1379 16.4521 30.9999C16.4024 31.4529 16.205 31.8225 16.003 32.2135L16.0399 32.3709C17.3191 33.4809 18.238 35.1333 19.2458 36.5186L21.4162 36.5436V34.0996C21.4162 33.9422 21.8041 33.2579 21.9334 33.0838C22.4113 32.4365 23.1028 32.1623 23.7123 31.6973C23.4907 30.368 23.3741 28.774 23.4965 27.4256C23.583 26.4695 24.0009 25.524 24.9314 25.2117C25.6149 24.9816 28.7076 25.0197 29.5596 25.0937C29.7708 25.1115 29.9821 25.1115 30.1622 25.2463C30.2684 25.3953 30.2869 25.5741 30.3053 25.7529C30.4277 26.944 30.3792 29.0601 30.31 30.2905C30.2822 30.7817 30.1149 31.2836 30.0744 31.7748C30.8652 31.931 31.9504 32.7071 32.3141 33.457C32.3706 33.5738 32.6142 34.2773 32.6142 34.3392V36.5448L34.6934 36.4864C35.6077 35.423 36.3465 34.0948 37.2354 33.0314C37.4467 32.7786 37.7191 32.4329 38.0401 32.3697C37.9085 32.0884 37.7445 31.8201 37.6591 31.5137C37.3693 30.4777 37.2989 27.3219 37.7053 26.3645C37.9593 25.7661 38.5238 25.2427 39.1645 25.1282C39.8052 25.0138 41.9317 25.0173 42.5724 25.1282C43.5317 25.2951 44.1805 26.3526 44.2729 27.3064C44.4241 28.867 44.3953 31.0273 43.6899 32.4246C44.1828 32.6618 44.9667 33.6788 44.9667 34.22V38.512C44.9667 38.8899 43.9277 38.8899 43.9277 38.512V34.3392C43.9277 34.0603 43.2397 33.2925 42.898 33.2591C42.7906 33.2484 41.568 33.9315 40.8684 33.9315C40.1388 33.9315 38.8586 33.1983 38.7016 33.221C37.9893 33.3259 35.9459 36.9073 35.2683 37.557C34.9277 37.7716 32.1028 37.5356 31.4021 37.6178C30.1841 37.7597 29.929 38.9746 30.9645 39.6195H35.9967C36.5682 39.4443 38.0874 36.7737 38.6716 36.1824C39.2488 35.5994 39.901 35.9857 39.669 36.6044C39.4012 37.3174 38.256 38.419 37.8103 39.1069V43.9354H43.9289V40.5376C43.9289 40.3337 44.6446 39.9808 44.8824 40.5066C45.0279 40.8273 45.0279 44.0903 44.939 44.5684C44.9171 44.6888 44.8824 44.8283 44.7751 44.8987L9.59125 45C9.33266 44.9523 9.11562 44.8808 9.06367 44.5911C8.98055 44.1285 8.98286 41.1194 9.06714 40.6603C9.14448 40.2371 9.61319 40.0786 9.9295 40.3599C9.95952 40.4469 10.1027 40.6043 10.1027 40.6568V43.9354H16.048L16.2212 43.7565V39.2261C15.8356 38.4917 14.5253 37.2566 14.3048 36.546C14.1952 36.1919 14.418 36.0191 14.6869 35.845C14.7828 35.8104 14.8647 35.8462 14.9536 35.8748C15.5077 36.0525 17.0085 38.7671 17.6065 39.3441C17.7416 39.4741 17.8455 39.5731 18.0348 39.6172C19.3336 39.9176 21.5501 39.4669 22.9504 39.6172C23.6592 39.4884 23.867 38.3665 23.3752 37.9171C22.6456 37.2506 19.778 37.842 18.7598 37.557C17.7035 36.459 16.8885 34.6886 15.8725 33.6227C15.7109 33.4534 15.5655 33.2841 15.3288 33.2221C14.6015 33.451 13.9908 33.916 13.1608 33.9279C12.3307 33.9399 11.3437 33.24 11.0828 33.2448C10.8057 33.2496 10.1027 33.9828 10.1027 34.2164V38.5084C10.1027 38.822 9.2149 38.9626 9.06367 38.5084C9.2149 37.1755 8.85934 35.3681 9.06367 34.0972L9.06483 34.0984ZM10.7965 27.0644C10.6372 27.8953 10.9142 29.2139 10.7965 30.1045C11.7558 30.3751 12.6771 30.1939 13.0442 29.1472C13.1885 28.737 13.1954 27.6962 13.4494 27.5389C13.9816 27.2098 14.7297 28.2625 15.4142 27.9585C15.4627 27.3493 15.457 26.5303 14.807 26.2596C14.4422 26.1082 12.1356 26.1035 11.6889 26.1964C11.3241 26.2727 10.8681 26.6936 10.7965 27.0632V27.0644ZM24.6497 27.7201H29.0943C29.3679 27.5389 29.331 26.3455 29.159 26.2227C27.739 26.3872 24.3057 25.2725 24.6497 27.7201ZM40.6687 27.6319C40.9412 27.9561 40.656 29.1651 41.3856 29.8112C41.7631 30.145 42.8933 30.4896 43.1796 29.9877C43.2905 29.7945 43.2651 27.7916 43.2223 27.4363C43.145 26.783 42.8298 26.2513 42.1418 26.1678C41.6569 26.1094 39.5951 26.107 39.2245 26.2608C38.6196 26.5124 38.4568 27.3541 38.5018 27.9597C39.1783 28.284 40.2 27.0751 40.6676 27.6319H40.6687ZM29.2675 28.7931H24.6497V31.1179C24.6497 31.5817 25.6183 32.4639 26.0685 32.6332C28.5056 33.5452 29.5954 30.8997 29.2675 28.7931ZM15.4096 29.1567L14.1455 28.9123C14.0024 30.0163 13.3651 30.9605 12.2742 31.2133C11.8516 31.311 11.5665 31.249 11.1982 31.2967C11.0366 31.317 10.9997 31.2335 11.0297 31.4744C11.6935 32.6093 12.856 33.1196 14.0762 32.5974C15.5066 31.9858 15.495 30.5421 15.4096 29.1567ZM43.0053 31.2979C41.8059 31.3826 40.8811 31.1489 40.2324 30.0473C39.998 29.6479 39.9391 29.2867 39.7071 28.923L38.5042 29.1507C37.8969 32.3149 41.3799 34.381 43.0053 31.2967V31.2979ZM24.5343 39.6422H29.4984C28.7538 38.0697 29.884 36.6033 31.4655 36.4745C31.3997 35.7914 31.5406 34.9997 31.4644 34.3345C31.3559 33.3914 30.2511 33.0254 29.555 32.6415C28.0253 34.3333 25.8931 34.2629 24.2699 32.7512C22.3501 33.3414 22.327 34.7303 22.4586 36.5425C24.1568 36.4805 25.1358 38.0458 24.5355 39.6434L24.5343 39.6422ZM36.7713 40.7152H17.2613V43.9342H36.7713V40.7152Z" fill="black"/>
<path d="M27.3047 18.5997C27.1003 20.6026 25.6261 21.7877 23.7271 21.8175C24.0895 23.5545 28.3841 22.1191 28.675 23.0311C29.0582 24.2353 26.1849 23.9587 25.5118 23.9098C24.5663 23.8418 23.7767 23.6725 23.1475 22.894C22.8589 22.5376 22.6846 21.8139 22.4018 21.7567L15.467 21.7519C15.3274 21.7364 15.2339 21.8043 15.1207 21.8711C14.4996 22.2395 13.3313 24.0457 12.7576 24.3223C11.5316 24.9148 12.0949 21.796 11.9472 21.6446C10.3575 21.4395 9.42934 20.0625 9.29889 18.4781C9.18344 17.088 9.12803 12.5707 9.46859 11.3844C9.79876 10.2256 10.9555 9.22533 12.1192 9.11684C16.1124 8.74725 20.647 9.39462 24.6968 9.13234C26.6674 9.59134 27.4905 11.4536 27.3035 13.4148L36.98 13.4958C37.8458 13.7271 38.6031 14.7286 38.722 15.6311C38.8733 16.772 38.8687 20.4226 38.722 21.5719C38.5858 22.6413 37.7997 23.4782 36.8218 23.7822C37.0193 28.6286 35.2795 25.6039 33.534 23.9682C32.9591 23.7524 30.4655 24.1256 30.1781 23.7107C29.9656 23.1813 30.006 22.8177 30.5994 22.7223C31.0774 22.646 33.2466 22.6377 33.6841 22.739C34.2578 22.8726 35.0429 24.1804 35.612 24.5023C35.6374 24.06 35.5219 23.3256 35.7921 22.9584C36.1453 22.4779 37.4695 22.9322 37.6807 21.3322C37.8193 20.2819 37.8193 16.9187 37.6807 15.8695C37.6173 15.3867 37.0781 14.4877 36.5944 14.4877H27.3012C27.2031 15.8039 27.4328 17.3085 27.3012 18.6009L27.3047 18.5997ZM12.9908 22.3551C13.1882 22.5852 14.5943 20.5895 15.0168 20.6932C17.9364 20.4583 21.2589 20.9853 24.1288 20.6849C25.2094 20.5716 26.0498 19.8753 26.1548 18.7237C26.2945 17.1845 26.328 13.4207 26.1525 11.9209C26.0429 10.9791 25.1228 10.2697 24.25 10.1898C20.4277 9.8417 16.1135 10.4605 12.2392 10.1946C11.4577 10.2816 10.7558 10.8587 10.5087 11.6264C10.1901 12.6136 10.2271 17.1547 10.3494 18.3469C10.4406 19.2423 10.795 20.0971 11.6412 20.4703C11.9957 20.6264 12.7957 20.6372 12.9342 20.9233L12.9908 22.3551Z" fill="black"/>
<path d="M13.1629 13.056C12.8339 12.951 12.7797 12.25 13.223 12.045L23.2042 11.9854C23.8761 12.1201 23.7006 13.056 23.4374 13.056H13.1629Z" fill="black"/>
<path d="M13.1629 15.9172C12.8339 15.8122 12.7797 15.1112 13.223 14.9062L23.2042 14.8466C23.8761 14.9813 23.7006 15.9172 23.4374 15.9172H13.1629Z" fill="black"/>
<path d="M18.7352 18.6307L13.2782 18.7797C12.6871 18.5937 12.8141 17.8224 13.3971 17.7091C14.0482 17.5827 17.5427 17.5994 18.248 17.7008C18.7514 17.7723 18.9419 18.1514 18.7341 18.6307H18.7352Z" fill="black"/>
</g>
<defs>
<clipPath id="clip0_180_43">
<rect width="36" height="36" fill="white" transform="translate(9 9)"/>
</clipPath>
</defs>
</svg>
