<svg width="54" height="54" viewBox="0 0 54 54" fill="none" xmlns="http://www.w3.org/2000/svg">
<circle cx="27" cy="27" r="27" fill="#FFDE21"/>
<g clip-path="url(#clip0_180_52)">
<path d="M28.2156 20.9817V28.095H34.117C34.1558 28.095 34.496 28.307 34.5335 28.3685V31.2412C34.496 31.3027 34.1558 31.5148 34.117 31.5148H28.2156V39.5171C28.2156 39.9918 26.827 40.2093 26.827 39.5171V31.5148H20.3702C19.7384 31.5148 19.7718 28.9061 19.9564 28.5081C19.9898 28.4369 20.3411 28.095 20.3702 28.095H26.827V20.9817H7.45662C6.83177 20.9817 6.82622 19.7383 7.56771 19.5865L27.5824 11L47.6471 19.6904C48.2789 19.8915 47.9345 20.9817 47.586 20.9817H28.2156ZM11.1363 19.6138H43.9063L31.5023 14.1189L27.4491 12.4951L17.8458 16.5798L11.1363 19.6138ZM33.3533 30.1468L33.3352 29.6858L33.145 29.4629H21.2728V30.1468H33.3533Z" fill="black"/>
<path d="M15.9962 33.4298L18.0583 39.4856C17.8 39.9986 17.2696 40.1887 16.821 39.7619L14.4702 33.4955L12.1291 33.4517L9.059 39.7592C8.13699 40.3556 7.67183 39.684 8.01341 38.7688C8.63549 37.1041 9.87964 35.3121 10.5753 33.6309C10.6142 33.3559 10.5656 33.4544 10.3726 33.4298C9.8116 33.3587 9.15481 33.6446 8.76462 33.096L8.63826 24.0623C8.77712 23.5698 9.06316 23.4782 9.52833 23.4344C13.8565 23.024 17.3917 26.4862 18.2624 30.4409C18.3679 30.9224 18.8095 33.4284 18.1457 33.4284H15.9935L15.9962 33.4298ZM17.1071 32.0619C16.8863 28.3548 14.0675 24.6272 10.0254 24.8119V32.0619H17.1071Z" fill="black"/>
<path d="M36.4779 33.4299C35.6045 33.1919 36.1725 30.8158 36.3377 30.1455C37.3069 26.2332 40.9422 22.9406 45.2342 23.4358C45.7355 23.4933 45.7993 23.7286 45.8535 24.1937C46.1618 26.8529 45.6285 30.0853 45.8382 32.8061C45.7591 33.7828 44.5566 33.2712 43.9095 33.4955L46.6241 39.0356L46.6172 39.5801C46.2381 40.1259 45.7494 40.1519 45.3758 39.576L42.3821 33.4969L40.0424 33.4531L37.7679 39.6252C37.4527 40.1327 36.6696 40.1573 36.5488 39.5117C36.3308 38.3421 38.4039 34.8512 38.4913 33.4313C37.9415 33.3369 36.9556 33.5612 36.4779 33.4313V33.4299ZM44.4622 24.812C40.4298 24.6382 37.661 28.4028 37.3805 32.062H44.4622V24.812Z" fill="black"/>
</g>
<defs>
<clipPath id="clip0_180_52">
<rect width="41" height="29" fill="white" transform="translate(7 11)"/>
</clipPath>
</defs>
</svg>
