<svg width="54" height="54" viewBox="0 0 54 54" fill="none" xmlns="http://www.w3.org/2000/svg">
<circle cx="27" cy="27" r="27" fill="#FFDE21"/>
<g clip-path="url(#clip0_180_80)">
<path d="M37.4382 18.391H47.0315C47.6802 18.391 48.9004 19.9674 48.8825 20.681C48.6617 24.4231 49.2165 28.5751 48.8991 32.2688C48.819 33.2019 48.4242 34.2082 47.5601 34.6568C47.447 34.7162 46.9376 34.9563 46.8934 34.9563H40.682L40.4749 35.1634V44.1355L40.2679 44.3426H14.7318L14.5247 44.1355V34.9563H8.10621C7.7142 34.9563 6.82803 34.1847 6.59751 33.8424C6.28418 33.3772 6.14753 32.8237 6.1006 32.2688C5.78726 28.622 6.33249 24.5183 6.1213 20.8232C6.00397 20.0943 7.36636 18.3924 7.96956 18.3924H17.5628V10.4541C17.5628 10.4003 17.723 10.1436 17.7947 10.0994L32.7865 10C34.476 11.3265 36.0151 12.9801 37.4396 14.5951V18.391H37.4382ZM36.3339 22.532V14.8712L32.538 11.0753H18.6657V22.532H36.3339ZM17.5615 19.3572H8.52031C7.76803 19.3572 7.26697 20.2669 7.2021 20.9377C6.84735 24.597 7.48368 28.8222 7.20486 32.5421C7.28354 33.2461 7.63828 33.5526 8.23458 33.8604L46.5566 33.9266C47.2827 33.7748 47.7065 33.2751 47.7948 32.5421C48.2282 28.9409 47.4621 24.4948 47.7948 20.8025C47.8611 20.3 47.0301 19.3559 46.6188 19.3559H37.4396V23.1518C37.4396 23.1752 37.227 23.3947 37.1608 23.4251H17.8375C17.7754 23.3892 17.5615 23.0524 17.5615 23.0137V19.3559V19.3572ZM39.5087 34.955H15.698L15.491 35.162V43.1679L15.698 43.375H39.3016L39.5087 43.1679V34.955Z" fill="black"/>
<path d="M12.1094 21.4277C12.5346 21.5589 12.489 22.532 11.9714 22.532H9.62483C9.55582 22.532 9.26457 22.1855 9.27285 22.042C9.19969 21.8653 9.52407 21.4277 9.62483 21.4277C10.1494 21.4277 11.7616 21.3201 12.1094 21.4277Z" fill="black"/>
<path d="M37.2656 37.1966C37.5155 37.4381 37.3857 37.9999 37.0696 38.1062L17.8361 38.0607C17.3075 37.4561 17.7147 36.9716 18.4518 37.0185C24.3057 37.3995 30.7629 36.5313 36.5465 37.0185C36.7673 37.0365 37.1041 37.0406 37.2656 37.1966Z" fill="black"/>
<path d="M37.0935 40.2002C37.1639 40.2195 37.3931 40.479 37.4179 40.5743C37.5656 41.1581 36.9817 41.2603 36.54 41.3031C30.8572 41.8442 24.36 40.8973 18.5902 41.3114C18.2893 41.3376 17.7606 41.1609 17.6212 40.889C17.5094 40.6709 17.8186 40.2002 17.907 40.2002H37.0935Z" fill="black"/>
</g>
<defs>
<clipPath id="clip0_180_80">
<rect width="43" height="34.3412" fill="white" transform="translate(6 10)"/>
</clipPath>
</defs>
</svg>
