<svg width="54" height="54" viewBox="0 0 54 54" fill="none" xmlns="http://www.w3.org/2000/svg">
<circle cx="27" cy="27" r="27" fill="#FFDE21"/>
<g clip-path="url(#clip0_180_90)">
<path d="M25.4664 5.07223C32.7947 4.32478 38.3795 9.50151 38.8297 16.6888C39.371 25.3307 38.4115 34.5319 38.8196 43.2325C38.656 45.0314 37.6409 46.5263 35.8316 46.9748L18.3505 47C16.2326 46.481 15.3676 44.981 15.2091 42.9067C14.9208 39.1106 14.9427 32.9295 15.2091 29.12C15.7521 21.3213 24.6384 22.4215 30.1204 19.9541C32.8976 18.7044 32.508 14.9772 30.6515 13.0792C28.2571 10.6336 23.9488 11.2635 22.4362 14.3154C21.5628 16.0757 22.4177 18.3701 20.2576 19.5358C17.8379 20.8409 15.2614 18.9933 15.2344 16.3797C15.1754 10.8772 20.0165 5.6282 25.4664 5.07223ZM25.8036 6.41596C22.2626 6.77373 19.0402 9.13198 17.6002 12.3536C16.9021 13.9157 15.6475 18.308 18.3505 18.6238C20.6202 18.8891 20.3504 16.5897 20.6539 15.2275C21.126 13.1145 22.7549 11.3307 24.7835 10.6067C32.1691 7.96965 37.2581 18.7598 30.0917 21.4372C27.2892 22.4836 20.2762 23.5771 18.3404 25.1845C17.5479 25.8413 17.0606 26.7046 16.8127 27.6939C16.177 30.2437 16.3254 39.7926 16.5598 42.7387C16.6677 44.1009 17.0842 45.2498 18.5141 45.663L35.6697 45.6361C36.7607 45.2296 37.3306 44.3764 37.4757 43.2359C37.0237 34.5638 38.0743 25.292 37.4824 16.6905C37.0541 10.4757 32.1995 5.76929 25.8053 6.41596H25.8036Z" fill="black"/>
<path d="M25.6282 27.0692C37.8415 25.4231 37.3997 44.0354 25.6603 42.2348C17.2258 40.9415 17.4298 28.1744 25.6282 27.0692ZM30.896 29.5483C24.8239 25.4298 17.59 32.565 22.0635 38.4388L22.3873 38.2876L30.896 29.5467V29.5483ZM31.9937 30.7241L23.3046 39.7103C29.3008 44.0019 36.4858 36.5492 31.9937 30.7241Z" fill="black"/>
</g>
<defs>
<clipPath id="clip0_180_90">
<rect width="24" height="42" fill="white" transform="translate(15 5)"/>
</clipPath>
</defs>
</svg>
