<svg width="54" height="54" viewBox="0 0 54 54" fill="none" xmlns="http://www.w3.org/2000/svg">
<circle cx="27" cy="27" r="27" fill="#FFDE21"/>
<g clip-path="url(#clip0_180_27)">
<path d="M14.1014 45C13.689 44.8726 13.7925 42.195 13.8216 41.6253C13.847 41.1247 14.314 38.2251 14.185 38.0904C12.7859 38.0012 11.801 37.5807 11.1251 36.332C9.99125 34.2333 8.02702 26.3316 7.99976 23.9762C7.97796 22.0723 9.38799 20.3357 11.2686 20.0463C11.5648 18.1114 11.2723 16.0873 11.7029 14.2015C11.8664 13.4862 12.8549 10.7267 13.7816 11.0798C14.6011 11.3929 13.3873 12.84 13.1457 13.4625C12.3044 15.6341 12.5842 17.7765 12.5642 20.0554C15.2825 20.2338 15.9657 22.9223 16.3746 25.1594C20.2412 22.8622 24.9456 22.5273 29.3737 22.784C32.2592 22.9514 35.1302 23.7323 37.6304 25.1594C37.9938 23.4192 38.1737 21.7082 39.7527 20.6397C40.3433 20.2411 40.9338 20.2047 41.4244 19.766C41.995 14.7367 40.5849 9.7638 34.8231 9.31784C30.6493 8.99566 26.2629 9.13946 22.1055 9.3324C20.4338 9.40885 18.8294 9.15402 17.1813 9.67825C16.2528 9.97313 15.2316 11.2091 14.5684 10.1206C16.0965 7.97086 19.0783 8.35857 21.3769 8.23844C24.6821 8.06733 28.0437 7.92718 31.3707 8.04185C34.9521 8.16381 38.2319 8.06187 40.7176 11.0562C42.869 13.6464 42.5365 16.5915 42.5637 19.7642L42.7163 19.9753C44.4916 20.3412 45.9216 21.974 45.9961 23.8033C46.0706 25.6326 44.3353 32.6187 43.5813 34.4881C43.3196 35.1379 43.2778 35.7149 42.4329 35.1816C42.313 34.9814 42.342 34.7721 42.3602 34.5536C42.4601 33.3796 43.5685 30.6183 43.8993 29.1657C44.1882 27.9025 44.9132 24.9555 44.8786 23.8106C44.8041 21.3241 41.6461 20.0827 39.9181 21.9012C37.6431 24.2948 40.1398 30.0849 34.4415 29.8993C31.3362 29.7973 28.4107 29.224 25.1745 29.3386C23.1867 29.4096 20.4993 30.0376 18.6331 29.8993C13.9124 29.548 16.3636 23.0352 13.3473 21.3624C11.5521 20.3667 9.15722 21.7555 9.09363 23.8015C9.03366 25.7328 10.5654 31.4738 11.2341 33.4906C11.7647 35.0888 11.99 36.4758 13.7853 36.9418C20.1904 38.6018 33.8164 38.6146 40.2125 36.9418C40.9393 36.7525 41.3735 36.2774 42.0568 36.2774C43.1415 37.3968 40.7067 38.0922 39.8182 38.0922C39.6655 38.2524 40.1579 41.4305 40.1797 41.9893C40.2161 42.8849 40.3451 44.2919 39.8999 45H36.2658C35.5444 44.372 35.0375 39.0551 34.7068 38.8239C29.6281 39.4501 24.4713 39.5356 19.3909 38.7966C18.9384 38.884 18.4478 44.3811 17.7319 45H14.0978H14.1014ZM24.3314 23.9398C22.4126 24.0909 19.787 24.6315 18.0662 25.4907C16.916 26.0659 16.191 26.308 16.9142 27.6203C17.532 28.7416 18.3606 28.8399 19.5508 28.7962C22.8687 28.6779 25.8886 28.0936 29.3737 28.2447C30.9873 28.3139 34.1835 29.0128 35.5335 28.7889C36.4057 28.6451 37.9266 27.0925 37.2688 26.3462C37.1562 26.2188 36.1622 25.6072 35.9369 25.4907C32.8025 23.8925 27.7911 23.6668 24.3296 23.938L24.3314 23.9398ZM18.1898 38.631L15.3679 38.438L14.9191 43.9078L17.0923 43.8969L18.1916 38.6292L18.1898 38.631ZM39.0877 43.9078L38.6389 38.438C38.4354 38.0885 36.3312 38.793 35.8152 38.631L36.9236 43.8896L39.0877 43.9097V43.9078Z" fill="black"/>
</g>
<defs>
<clipPath id="clip0_180_27">
<rect width="38" height="37" fill="white" transform="translate(8 8)"/>
</clipPath>
</defs>
</svg>
