<svg width="54" height="54" viewBox="0 0 54 54" fill="none" xmlns="http://www.w3.org/2000/svg">
<circle cx="27" cy="27" r="27" fill="#FFDE21"/>
<g clip-path="url(#clip0_180_63)">
<path d="M10 33.2444C10.3182 32.7615 10.8975 32.9402 11.3767 32.9274C11.7283 30.3005 10.8406 12.7267 11.5535 11.7419C12.0641 11.0357 24.1897 11.6589 25.9102 11.4441C25.7 9.38084 26.2224 8.71294 28.1628 9.10858C29.1782 9.31703 28.8011 10.6252 28.8542 11.442L42.5136 11.4313L43.2913 11.8653L43.3876 32.9253L44.6327 32.9147C45.1002 33.0295 45.2003 36.9646 44.4678 36.9646H32.5857L36.2799 44.9943C36.5804 46.6428 34.7795 47.7382 33.7896 46.4003L29.6181 37.3049C29.1134 36.5988 26.2539 37.0965 25.3485 36.9986L20.8883 46.5258C20.1479 47.417 18.6552 46.8406 18.4746 45.7409C18.2192 44.186 21.8467 38.8811 22.1747 36.9646H10.2946L10 36.6455V33.2422V33.2444ZM42.4056 12.7182H12.5532V32.9253H42.4056V12.7182ZM43.7804 33.9888H10.982V35.6905H43.7804V33.9888ZM24.1406 36.9689L23.3531 37.0731L19.5724 45.1198C19.3996 46.245 20.0339 46.0812 20.4464 45.2006L24.1387 36.971L24.1406 36.9689ZM30.6217 36.9689L34.5084 45.4133L35.0368 45.9004L35.2489 45.2538C34.4692 44.1988 31.9926 37.4475 31.4073 37.071C31.1618 36.9136 30.8849 36.9646 30.6198 36.9667L30.6217 36.9689Z" fill="black"/>
</g>
<defs>
<clipPath id="clip0_180_63">
<rect width="35" height="38" fill="white" transform="translate(10 9)"/>
</clipPath>
</defs>
</svg>
